<svg id="Group_104" data-name="Group 104" xmlns="http://www.w3.org/2000/svg" xmlns:xlink="http://www.w3.org/1999/xlink" width="159" height="60.975" viewBox="0 0 159 60.975">
  <defs>
    <clipPath id="clip-path">
      <rect id="Rectangle_53" data-name="Rectangle 53" width="159" height="60.975" fill="none"/>
    </clipPath>
  </defs>
  <g id="Group_103" data-name="Group 103" clip-path="url(#clip-path)">
    <path id="Path_16" data-name="Path 16" d="M31.091,25.266l11.53,24.891c.986,2.129,3.815,2.628,5.143.907l15.53-20.119h0a16.762,16.762,0,0,0,3.239-7.378C68.468,12.611,59.939,1.487,48.565.134,38.692-1.039,30.188,5.607,29.316,15.419a19.3,19.3,0,0,0,1.775,9.847Z" transform="translate(-21.892 0)" fill="red"/>
    <path id="Path_17" data-name="Path 17" d="M59.339,26.807l5.772-1.168a13.423,13.423,0,0,1,15.133,9.345c1.943,6.553-1.729,12.949-8.159,14.25l-5.925,1.2A3.067,3.067,0,0,1,62.7,48.253L57.454,30.069a2.52,2.52,0,0,1,1.885-3.262M69.854,43.217l.386-.078a5.217,5.217,0,0,0,4.151-6.07,6.325,6.325,0,0,0-7.267-5.136l-.5.1a1.951,1.951,0,0,0-1.46,2.525l2.012,6.969a2.375,2.375,0,0,0,2.677,1.688" transform="translate(-42.925 -19.016)" fill="#fff"/>
    <path id="Path_18" data-name="Path 18" d="M212.5,44.322h8.386a11.312,11.312,0,0,1,0,22.624H212.5Zm5.913,16.772h2.5a5.354,5.354,0,1,0,0-10.709h-2.5Z" transform="translate(-159.077 -33.18)" fill="red"/>
    <path id="Path_19" data-name="Path 19" d="M303.1,44.323h14.057v4.917h-8.114v3.68h7.179v5.008h-7.179V62.09h8.114v4.857H303.1Z" transform="translate(-226.902 -33.18)" fill="red"/>
    <path id="Path_20" data-name="Path 20" d="M392.555,66.946,381.877,56.238V66.946h-5.943V44.323h2.413L389.056,55V44.323H395V66.946Z" transform="translate(-281.429 -33.18)" fill="red"/>
    <path id="Path_21" data-name="Path 21" d="M469.892,66.946V44.322h9.985a6.826,6.826,0,0,1,6.7,6.727,6.625,6.625,0,0,1-1.448,4.072,6.6,6.6,0,0,1-4.072,11.825ZM478.7,53.161a1.961,1.961,0,0,0,0-3.922h-2.866v3.922Zm1.116,8.9a1.957,1.957,0,0,0,1.961-1.961,2,2,0,0,0-1.961-1.961h-3.982v3.921Z" transform="translate(-351.767 -33.18)" fill="red"/>
    <path id="Path_22" data-name="Path 22" d="M557.481,58.621v8.326H551.6V58.621l-8.265-14.3h6.847l4.344,7.541,4.374-7.541h6.848Z" transform="translate(-406.746 -33.181)" fill="red"/>
    <path id="Path_23" data-name="Path 23" d="M216.768,153.781a1.98,1.98,0,0,0-1.425-.554,1.991,1.991,0,1,0,1.425,3.416l1.584,1.561a4.241,4.241,0,1,1-3.009-7.228,4.2,4.2,0,0,1,2.986,1.233Z" transform="translate(-158.033 -113.023)" fill="#2ccbe5"/>
    <path id="Path_24" data-name="Path 24" d="M242.646,159.46l3.959-8.484h1.007l3.993,8.484h-2.228l-.52-1.109h-3.473l-.509,1.109Zm3.608-2.986h1.731l-.86-1.867Z" transform="translate(-181.648 -113.023)" fill="#2ccbe5"/>
    <path id="Path_25" data-name="Path 25" d="M287.254,154.12l3.45-3.145h1.007v8.484h-2.24V155.1l-2.217,2.025-2.229-2.014v4.344h-2.24v-8.484h1.007Z" transform="translate(-211.697 -113.022)" fill="#2ccbe5"/>
    <path id="Path_26" data-name="Path 26" d="M325.085,150.975h3.574a3.117,3.117,0,0,1,.045,6.233h-1.391v2.251h-2.228Zm2.228,4.31h1.38a1.216,1.216,0,1,0,0-2.432h-1.38Z" transform="translate(-243.363 -113.022)" fill="#2ccbe5"/>
    <path id="Path_27" data-name="Path 27" d="M356.5,150.976h5.271v1.844h-3.043v1.38h2.692v1.878h-2.692v1.561h3.043v1.821H356.5Z" transform="translate(-266.877 -113.022)" fill="#2ccbe5"/>
    <path id="Path_28" data-name="Path 28" d="M388.731,159.459l-1.312-2.251h-1.38v2.251H383.81v-8.484h3.574a3.115,3.115,0,0,1,2.115,5.407l1.8,3.077Zm-2.692-4.174h1.38a1.216,1.216,0,1,0,0-2.432h-1.38Z" transform="translate(-287.325 -113.022)" fill="#2ccbe5"/>
    <path id="Path_29" data-name="Path 29" d="M421.683,150.931l-3.948,8.5h-1.018l-3.959-8.5H415l2.229,4.83,2.24-4.83Z" transform="translate(-308.996 -112.989)" fill="#2ccbe5"/>
    <path id="Path_30" data-name="Path 30" d="M441.787,159.46l3.959-8.484h1.007l3.993,8.484h-2.228l-.52-1.109h-3.473l-.509,1.109Zm3.608-2.986h1.731l-.86-1.867Z" transform="translate(-330.727 -113.023)" fill="#2ccbe5"/>
    <path id="Path_31" data-name="Path 31" d="M488.159,159.46l-4-4.016v4.016h-2.228v-8.484h.9l4.016,4v-4h2.229v8.484Z" transform="translate(-360.776 -113.022)" fill="#2ccbe5"/>
    <path id="Path_32" data-name="Path 32" d="M519.878,153.577a.652.652,0,0,0-.645-.645.642.642,0,0,0-.633.645.633.633,0,0,0,.633.634,2.624,2.624,0,1,1-2.613,2.613h1.98a.635.635,0,0,0,.633.645.642.642,0,0,0,.645-.633.652.652,0,0,0-.645-.645,2.608,2.608,0,1,1,2.613-2.613Z" transform="translate(-386.748 -113.022)" fill="#2ccbe5"/>
    <path id="Path_33" data-name="Path 33" d="M39.619,176.31a39.558,39.558,0,0,0-3.823-1.28,1.226,1.226,0,0,0-1.3.428l-1.534,1.987a1.221,1.221,0,0,0,.655,1.927c5.088,1.334,7.846,2.988,8.426,3.867-1.112,1.147-7.487,3.124-18.948,2.052s-17.358-4.2-18.238-5.531c.731-.754,3.737-1.866,8.964-2.235a1.221,1.221,0,0,0,1.018-1.731l-1.04-2.245a1.226,1.226,0,0,0-1.22-.7,39.676,39.676,0,0,0-4.06.555c-5.368,1.042-8.226,3.03-8.5,5.907s2.171,5.361,7.252,7.381a57.878,57.878,0,0,0,15.374,3.358c2.282.213,4.523.319,6.665.319a48.5,48.5,0,0,0,9.065-.767c5.368-1.043,8.226-3.03,8.5-5.907s-2.171-5.361-7.252-7.381" transform="translate(0 -129.39)" fill="#2ccbe5"/>
  </g>
</svg>
